<?xml version="1.0" encoding="utf-8"?>
<!-- Generator: Adobe Illustrator 14.0.0, SVG Export Plug-In . SVG Version: 6.00 Build 43363)  -->
<!DOCTYPE svg PUBLIC "-//W3C//DTD SVG 1.1//EN" "http://www.w3.org/Graphics/SVG/1.1/DTD/svg11.dtd">
<svg version="1.1" id="Layer_1" xmlns="http://www.w3.org/2000/svg" xmlns:xlink="http://www.w3.org/1999/xlink" x="0px" y="0px"
	 width="43.877px" height="43.878px" viewBox="0 0 43.877 43.878" enable-background="new 0 0 43.877 43.878" xml:space="preserve">
<path fill="#FFFFFF" d="M21.939,43.878c-10.392,0-19.12-7.264-21.374-16.98H0.5v-0.29C0.173,25.103,0,23.54,0,21.938
	C0,9.842,9.842,0,21.939,0c12.097,0,21.938,9.842,21.938,21.938C43.877,34.036,34.036,43.878,21.939,43.878L21.939,43.878z
	 M21.939,1C10.393,1,1,10.393,1,21.938c0,11.546,9.393,20.939,20.939,20.939s20.938-9.394,20.938-20.939
	C42.877,10.393,33.485,1,21.939,1L21.939,1z M21.938,28.354c-4.523,0-8.383-1.29-10.407-3.238c-2.193,0.771-5.125,1.194-7.965,1.228
	l-0.012-1c2.927-0.034,5.436-0.449,7.268-1.041c-0.521-0.728-0.806-1.524-0.806-2.363c0-0.838,0.285-1.634,0.806-2.362
	c-1.833-0.592-4.34-1.007-7.268-1.042l0.012-1c2.84,0.034,5.771,0.457,7.964,1.229c2.023-1.949,5.884-3.238,10.407-3.238
	c4.524,0,8.386,1.29,10.409,3.238c2.193-0.772,5.124-1.195,7.965-1.229l0.012,1c-2.928,0.035-5.436,0.45-7.268,1.042
	c0.521,0.728,0.806,1.524,0.806,2.362c0,0.839-0.284,1.635-0.806,2.363c1.832,0.592,4.34,1.007,7.268,1.041l-0.012,1
	c-2.841-0.033-5.771-0.456-7.965-1.229C30.324,27.063,26.462,28.354,21.938,28.354L21.938,28.354z M12.584,24.689
	c1.932,1.581,5.442,2.664,9.354,2.664c3.913,0,7.424-1.083,9.356-2.664c-1.522-0.707-2.491-1.631-2.491-2.751
	s0.969-2.043,2.491-2.75c-1.933-1.581-5.443-2.664-9.356-2.664c-3.912,0-7.422,1.083-9.354,2.664
	c1.523,0.707,2.492,1.63,2.492,2.751C15.076,23.06,14.107,23.983,12.584,24.689L12.584,24.689z M11.817,19.941
	c-0.515,0.622-0.8,1.296-0.8,1.997c0,0.701,0.286,1.377,0.801,1.998c1.438-0.603,2.258-1.321,2.258-1.997
	S13.255,20.544,11.817,19.941L11.817,19.941z M32.061,19.941c-1.438,0.603-2.258,1.321-2.258,1.997s0.82,1.396,2.258,1.998
	c0.516-0.622,0.801-1.297,0.801-1.998C32.862,21.238,32.577,20.563,32.061,19.941L32.061,19.941z"/>
</svg>
