<?xml version="1.0" encoding="utf-8"?>
<!-- Generator: Adobe Illustrator 14.0.0, SVG Export Plug-In . SVG Version: 6.00 Build 43363)  -->
<!DOCTYPE svg PUBLIC "-//W3C//DTD SVG 1.1//EN" "http://www.w3.org/Graphics/SVG/1.1/DTD/svg11.dtd">
<svg version="1.1" id="Layer_1" xmlns="http://www.w3.org/2000/svg" xmlns:xlink="http://www.w3.org/1999/xlink" x="0px" y="0px"
	 width="43.879px" height="43.878px" viewBox="0 0 43.879 43.878" enable-background="new 0 0 43.879 43.878" xml:space="preserve">
<path fill="#FFFFFF" d="M21.939,43.878C9.842,43.878,0,34.037,0,21.939C0,9.842,9.842,0,21.939,0s21.939,9.842,21.939,21.939
	C43.879,34.037,34.037,43.878,21.939,43.878L21.939,43.878z M21.939,1C10.394,1,1,10.393,1,21.939s9.394,20.939,20.939,20.939
	s20.939-9.394,20.939-20.939S33.485,1,21.939,1L21.939,1z M21.939,39.134c-6.032,0-10.571-16.951-10.909-23.234
	c-0.013-0.233-0.02-0.465-0.02-0.695c0-6.026,4.903-10.929,10.929-10.929c6.025,0,10.928,4.903,10.928,10.929
	c0,0.23-0.007,0.462-0.021,0.695C32.51,22.183,27.971,39.134,21.939,39.134L21.939,39.134z M14.643,27.839
	c1.877,5.447,4.548,10.295,7.297,10.295s5.419-4.848,7.296-10.295c-1.896,3.537-4.419,6.295-7.296,6.295
	S16.538,31.376,14.643,27.839L14.643,27.839z M14.131,24.333c1.861,4.62,4.743,8.802,7.809,8.802s5.947-4.182,7.808-8.801
	c-2.007,2.797-4.797,4.801-7.808,4.801S16.138,27.13,14.131,24.333L14.131,24.333z M12.011,15.206
	c0,5.699,4.675,12.929,9.929,12.929s9.928-7.23,9.928-12.929c0-5.475-4.453-9.929-9.928-9.929S12.011,9.73,12.011,15.206
	L12.011,15.206z"/>
</svg>
