<?xml version="1.0" encoding="utf-8"?>
<!-- Generator: Adobe Illustrator 14.0.0, SVG Export Plug-In . SVG Version: 6.00 Build 43363)  -->
<!DOCTYPE svg PUBLIC "-//W3C//DTD SVG 1.1//EN" "http://www.w3.org/Graphics/SVG/1.1/DTD/svg11.dtd">
<svg version="1.1" id="Layer_1" xmlns="http://www.w3.org/2000/svg" xmlns:xlink="http://www.w3.org/1999/xlink" x="0px" y="0px"
	 width="43.877px" height="43.878px" viewBox="0 0 43.877 43.878" enable-background="new 0 0 43.877 43.878" xml:space="preserve">
<path fill="#FFFFFF" d="M21.939,43.84C9.842,43.84,0,33.999,0,21.901C0,9.804,9.842-0.038,21.939-0.038
	c12.097,0,21.938,9.842,21.938,21.938C43.877,33.999,34.036,43.84,21.939,43.84L21.939,43.84z M21.939,0.962
	C10.393,0.962,1,10.355,1,21.901C1,33.447,10.393,42.84,21.939,42.84s20.938-9.394,20.938-20.939
	C42.877,10.355,33.485,0.962,21.939,0.962L21.939,0.962z M11.67,35.768l-5.905-7.855L32.208,8.035l5.904,7.855L11.67,35.768
	L11.67,35.768z M7.165,28.112l4.703,6.256l3.298-2.479l-3.176-4.225l0.799-0.602l3.177,4.226l3.673-2.762l-2.351-3.127l0.799-0.602
	l2.351,3.128l3.674-2.762l-3.176-4.225l0.799-0.601l3.176,4.225l3.675-2.762l-2.352-3.128l0.799-0.601l2.352,3.127l3.674-2.761
	l-3.177-4.225l0.799-0.601l3.177,4.225l2.855-2.146l-4.703-6.256L7.165,28.112L7.165,28.112z"/>
</svg>
