<?xml version="1.0" encoding="utf-8"?>
<!-- Generator: Adobe Illustrator 14.0.0, SVG Export Plug-In . SVG Version: 6.00 Build 43363)  -->
<!DOCTYPE svg PUBLIC "-//W3C//DTD SVG 1.1//EN" "http://www.w3.org/Graphics/SVG/1.1/DTD/svg11.dtd">
<svg version="1.1" id="Layer_1" xmlns="http://www.w3.org/2000/svg" xmlns:xlink="http://www.w3.org/1999/xlink" x="0px" y="0px"
	 width="43.877px" height="43.878px" viewBox="0 0 43.877 43.878" enable-background="new 0 0 43.877 43.878" xml:space="preserve">
<path fill="#FFFFFF" d="M21.939,44.52C9.842,44.52,0,34.678,0,22.581S9.842,0.641,21.939,0.641c12.097,0,21.938,9.842,21.938,21.939
	S34.036,44.52,21.939,44.52L21.939,44.52z M21.939,1.641C10.393,1.641,1,11.035,1,22.581S10.393,43.52,21.939,43.52
	s20.938-9.394,20.938-20.939S33.485,1.641,21.939,1.641L21.939,1.641z M31.432,35.471l-9.097-4.783l-9.097,4.783l1.738-10.13
	l-7.359-7.174l10.171-1.478l4.548-9.216l4.548,9.216l10.17,1.478l-7.359,7.174L31.432,35.471L31.432,35.471z M9.766,18.866
	l6.284,6.126l-1.484,8.651l7.769-4.084l7.769,4.084l-1.484-8.651l6.285-6.126l-8.686-1.262l-3.884-7.871l-3.884,7.871L9.766,18.866
	L9.766,18.866z"/>
</svg>
