<?xml version="1.0" encoding="utf-8"?>
<!-- Generator: Adobe Illustrator 14.0.0, SVG Export Plug-In . SVG Version: 6.00 Build 43363)  -->
<!DOCTYPE svg PUBLIC "-//W3C//DTD SVG 1.1//EN" "http://www.w3.org/Graphics/SVG/1.1/DTD/svg11.dtd">
<svg version="1.1" id="Layer_1" xmlns="http://www.w3.org/2000/svg" xmlns:xlink="http://www.w3.org/1999/xlink" x="0px" y="0px"
	 width="43.877px" height="43.878px" viewBox="0 0 43.877 43.878" enable-background="new 0 0 43.877 43.878" xml:space="preserve">
<path d="M21.939,43.878C9.842,43.878,0,34.036,0,21.939C0,9.842,9.842,0,21.939,0c12.097,0,21.938,9.842,21.938,21.939
	C43.877,34.036,34.036,43.878,21.939,43.878L21.939,43.878z M21.939,1C10.393,1,1,10.394,1,21.939s9.393,20.938,20.939,20.938
	s20.938-9.393,20.938-20.938S33.485,1,21.939,1L21.939,1z"/>
<polygon points="0.5,26.898 0.5,25.898 0.955,25.895 0.974,26.895 0.5,26.898 "/>
<path d="M24.674,35.907h-6.07V15.045h-7.451V9.797h20.955v5.248h-7.434V35.907L24.674,35.907z M19.604,34.907h4.07V14.045h7.434
	v-3.248H12.153v3.248h7.451V34.907L19.604,34.907z"/>
</svg>
