<?xml version="1.0" encoding="utf-8"?>
<!-- Generator: Adobe Illustrator 14.0.0, SVG Export Plug-In . SVG Version: 6.00 Build 43363)  -->
<!DOCTYPE svg PUBLIC "-//W3C//DTD SVG 1.1//EN" "http://www.w3.org/Graphics/SVG/1.1/DTD/svg11.dtd">
<svg version="1.1" id="Layer_1" xmlns="http://www.w3.org/2000/svg" xmlns:xlink="http://www.w3.org/1999/xlink" x="0px" y="0px"
	 width="43.877px" height="43.878px" viewBox="0 0 43.877 43.878" enable-background="new 0 0 43.877 43.878" xml:space="preserve">
<path fill="#FFFFFF" d="M21.939,43.878C9.842,43.878,0,34.037,0,21.939C0,9.842,9.842,0,21.939,0
	c12.097,0,21.938,9.842,21.938,21.939C43.877,34.037,34.036,43.878,21.939,43.878L21.939,43.878z M21.939,1
	C10.393,1,1,10.393,1,21.939s9.393,20.939,20.939,20.939s20.938-9.394,20.938-20.939S33.485,1,21.939,1L21.939,1z M21.94,38.723
	c-9.255,0-16.785-7.529-16.785-16.784c0-9.254,7.53-16.784,16.785-16.784c9.254,0,16.783,7.529,16.783,16.784
	C38.723,31.194,31.194,38.723,21.94,38.723L21.94,38.723z M21.439,35.641h1v2.074c2.509-0.078,4.871-0.744,6.954-1.866l-0.745-1.291
	l0.865-0.5l0.745,1.29c2.062-1.283,3.807-3.028,5.09-5.09l-1.184-0.685l0.5-0.865l1.186,0.685c1.12-2.083,1.787-4.446,1.865-6.954
	h-2.074v-1h2.074c-0.078-2.508-0.745-4.871-1.865-6.954l-1.292,0.746l-0.5-0.866l1.29-0.745c-1.283-2.062-3.028-3.807-5.09-5.09
	l-0.685,1.184l-0.865-0.501l0.685-1.185c-2.083-1.121-4.446-1.788-6.954-1.866v2.075h-1V6.163c-2.509,0.079-4.87,0.745-6.954,1.866
	l0.746,1.291l-0.866,0.5L13.62,8.53c-2.062,1.284-3.807,3.028-5.09,5.089l1.185,0.684l-0.5,0.866l-1.186-0.685
	c-1.121,2.083-1.787,4.446-1.866,6.954h2.235v1H6.163c0.079,2.508,0.745,4.871,1.866,6.954l1.291-0.745l0.5,0.865l-1.29,0.745
	c1.283,2.062,3.028,3.807,5.09,5.09l0.684-1.184l0.866,0.5l-0.685,1.186c2.083,1.12,4.445,1.787,6.954,1.865V35.641L21.439,35.641z
	 M21.519,23.059l-0.549-0.836l0.368-0.242l-3.834-4.941l0.79-0.613l3.883,5.003l9.917-6.524l0.549,0.835L21.519,23.059
	L21.519,23.059z"/>
</svg>
